; NON-PLATED HOLES START AT T1
; THROUGH (PLATED) HOLES START AT T100
M48
INCH
T100C0.042000
T101C0.047244
T102C0.030000
T103C0.031496
T104C0.038000
T105C0.031555
T106C0.035000
%
T100
X015308Y001962
X016308Y001962
X016308Y008962
X016308Y011942
X017308Y001962
T101
X016308Y016962
X017826Y016962
T102
X009306Y016962
X010308Y015962
X009306Y015962
X010308Y016962
T103
X004377Y015962
T104
X013308Y012962
X010308Y012962
X014308Y012962
X012308Y017962
X008308Y004962
X002308Y012962
X013308Y015962
X013308Y017962
X013308Y016962
X007308Y012962
X002308Y004962
X011308Y004962
X001308Y012962
X009308Y012962
X009308Y004962
X001308Y004962
X010308Y004962
X004308Y004962
X013308Y004962
X012308Y012962
X006308Y004962
X012308Y004962
X005308Y004962
X004308Y012962
X011308Y012962
X012308Y016962
X012308Y015962
X003308Y004962
X013308Y014962
X012308Y014962
X008308Y012962
X003308Y012962
X014308Y004962
T105
X006308Y015962
T106
X002308Y017962
X011308Y006962
X008308Y009962
X008308Y006962
X007308Y009962
X009308Y006962
X010308Y009962
X011308Y009962
X009308Y009962
X012308Y001962
X004308Y006962
X005308Y009962
X003308Y009962
X005308Y006962
X010308Y006962
X003308Y006962
X001308Y006962
X002308Y006962
X017308Y005962
X012308Y006962
X014308Y009962
X006308Y006962
X006308Y009962
X012308Y002962
X002308Y013962
X002308Y009962
X001308Y009962
X012308Y009962
X014308Y006962
X016308Y005962
X004308Y009962
X013308Y006962
X013308Y009962
X007308Y006962
T00
M30
